<svg xmlns="http://www.w3.org/2000/svg" viewBox="0 0 128 128" fill="currentColor" role="img" aria-label="Paw"><path d="M45 16h2v2h-2zM49 16h2v2h-2zM53 16h2v2h-2zM57 16h2v2h-2zM61 16h2v2h-2zM65 16h2v2h-2zM69 16h2v2h-2zM43 18h2v2h-2zM47 18h2v2h-2zM51 18h2v2h-2zM55 18h2v2h-2zM59 18h2v2h-2zM63 18h2v2h-2zM67 18h2v2h-2zM71 18h2v2h-2zM41 20h2v2h-2zM45 20h2v2h-2zM49 20h2v2h-2zM53 20h2v2h-2zM57 20h2v2h-2zM61 20h2v2h-2zM65 20h2v2h-2zM69 20h2v2h-2zM73 20h2v2h-2zM39 22h2v2h-2zM43 22h2v2h-2zM47 22h2v2h-2zM51 22h2v2h-2zM55 22h2v2h-2zM59 22h2v2h-2zM63 22h2v2h-2zM67 22h2v2h-2zM71 22h2v2h-2zM75 22h2v2h-2zM37 24h2v2h-2zM41 24h2v2h-2zM45 24h2v2h-2zM49 24h2v2h-2zM53 24h2v2h-2zM57 24h2v2h-2zM61 24h2v2h-2zM65 24h2v2h-2zM69 24h2v2h-2zM73 24h2v2h-2zM77 24h2v2h-2zM35 26h2v2h-2zM39 26h2v2h-2zM43 26h2v2h-2zM47 26h2v2h-2zM51 26h2v2h-2zM55 26h2v2h-2zM59 26h2v2h-2zM63 26h2v2h-2zM67 26h2v2h-2zM71 26h2v2h-2zM75 26h2v2h-2zM79 26h2v2h-2zM33 28h2v2h-2zM37 28h2v2h-2zM41 28h2v2h-2zM45 28h2v2h-2zM49 28h2v2h-2zM53 28h2v2h-2zM57 28h2v2h-2zM61 28h2v2h-2zM65 28h2v2h-2zM69 28h2v2h-2zM73 28h2v2h-2zM77 28h2v2h-2zM81 28h2v2h-2zM31 30h2v2h-2zM35 30h2v2h-2zM39 30h2v2h-2zM43 30h2v2h-2zM47 30h2v2h-2zM51 30h2v2h-2zM55 30h2v2h-2zM59 30h2v2h-2zM63 30h2v2h-2zM67 30h2v2h-2zM71 30h2v2h-2zM75 30h2v2h-2zM79 30h2v2h-2zM83 30h2v2h-2zM29 32h2v2h-2zM33 32h2v2h-2zM37 32h2v2h-2zM41 32h2v2h-2zM45 32h2v2h-2zM49 32h2v2h-2zM53 32h2v2h-2zM57 32h2v2h-2zM61 32h2v2h-2zM65 32h2v2h-2zM69 32h2v2h-2zM73 32h2v2h-2zM77 32h2v2h-2zM81 32h2v2h-2zM85 32h2v2h-2zM27 34h2v2h-2zM31 34h2v2h-2zM35 34h2v2h-2zM39 34h2v2h-2zM43 34h2v2h-2zM47 34h2v2h-2zM51 34h2v2h-2zM55 34h2v2h-2zM59 34h2v2h-2zM63 34h2v2h-2zM67 34h2v2h-2zM71 34h2v2h-2zM75 34h2v2h-2zM79 34h2v2h-2zM83 34h2v2h-2zM87 34h2v2h-2zM25 36h2v2h-2zM29 36h2v2h-2zM33 36h2v2h-2zM37 36h2v2h-2zM41 36h2v2h-2zM45 36h2v2h-2zM49 36h2v2h-2zM53 36h2v2h-2zM57 36h2v2h-2zM61 36h2v2h-2zM65 36h2v2h-2zM69 36h2v2h-2zM73 36h2v2h-2zM77 36h2v2h-2zM81 36h2v2h-2zM85 36h2v2h-2zM89 36h2v2h-2zM23 38h2v2h-2zM27 38h2v2h-2zM31 38h2v2h-2zM35 38h2v2h-2zM39 38h2v2h-2zM43 38h2v2h-2zM47 38h2v2h-2zM51 38h2v2h-2zM55 38h2v2h-2zM59 38h2v2h-2zM63 38h2v2h-2zM67 38h2v2h-2zM71 38h2v2h-2zM75 38h2v2h-2zM79 38h2v2h-2zM83 38h2v2h-2zM87 38h2v2h-2zM91 38h2v2h-2zM21 40h2v2h-2zM25 40h2v2h-2zM29 40h2v2h-2zM33 40h2v2h-2zM37 40h2v2h-2zM41 40h2v2h-2zM45 40h2v2h-2zM49 40h2v2h-2zM53 40h2v2h-2zM57 40h2v2h-2zM61 40h2v2h-2zM65 40h2v2h-2zM69 40h2v2h-2zM73 40h2v2h-2zM77 40h2v2h-2zM81 40h2v2h-2zM85 40h2v2h-2zM89 40h2v2h-2zM93 40h2v2h-2zM19 42h2v2h-2zM23 42h2v2h-2zM27 42h2v2h-2zM31 42h2v2h-2zM35 42h2v2h-2zM39 42h2v2h-2zM43 42h2v2h-2zM47 42h2v2h-2zM51 42h2v2h-2zM55 42h2v2h-2zM59 42h2v2h-2zM63 42h2v2h-2zM67 42h2v2h-2zM71 42h2v2h-2zM75 42h2v2h-2zM79 42h2v2h-2zM83 42h2v2h-2zM87 42h2v2h-2zM91 42h2v2h-2zM95 42h2v2h-2zM17 44h2v2h-2zM21 44h2v2h-2zM25 44h2v2h-2zM29 44h2v2h-2zM33 44h2v2h-2zM37 44h2v2h-2zM41 44h2v2h-2zM45 44h2v2h-2zM49 44h2v2h-2zM53 44h2v2h-2zM57 44h2v2h-2zM61 44h2v2h-2zM65 44h2v2h-2zM69 44h2v2h-2zM73 44h2v2h-2zM77 44h2v2h-2zM81 44h2v2h-2zM85 44h2v2h-2zM89 44h2v2h-2zM93 44h2v2h-2zM97 44h2v2h-2zM15 46h2v2h-2zM19 46h2v2h-2zM23 46h2v2h-2zM27 46h2v2h-2zM31 46h2v2h-2zM35 46h2v2h-2zM39 46h2v2h-2zM43 46h2v2h-2zM47 46h2v2h-2zM51 46h2v2h-2zM55 46h2v2h-2zM59 46h2v2h-2zM63 46h2v2h-2zM67 46h2v2h-2zM71 46h2v2h-2zM75 46h2v2h-2zM79 46h2v2h-2zM83 46h2v2h-2zM87 46h2v2h-2zM91 46h2v2h-2zM95 46h2v2h-2zM99 46h2v2h-2zM13 48h2v2h-2zM17 48h2v2h-2zM21 48h2v2h-2zM25 48h2v2h-2zM29 48h2v2h-2zM33 48h2v2h-2zM37 48h2v2h-2zM41 48h2v2h-2zM45 48h2v2h-2zM49 48h2v2h-2zM53 48h2v2h-2zM57 48h2v2h-2zM61 48h2v2h-2zM65 48h2v2h-2zM69 48h2v2h-2zM73 48h2v2h-2zM77 48h2v2h-2zM81 48h2v2h-2zM85 48h2v2h-2zM89 48h2v2h-2zM93 48h2h-2v2zM97 48h2v2h-2zM101 48h2v2h-2zM13 50h2v2h-2zM17 50h2v2h-2zM21 50h2v2h-2zM25 50h2v2h-2zM29 50h2v2h-2zM33 50h2v2h-2zM37 50h2v2h-2zM41 50h2v2h-2zM45 50h2v2h-2zM49 50h2v2h-2zM53 50h2v2h-2zM57 50h2v2h-2zM61 50h2v2h-2zM65 50h2v2h-2zM69 50h2v2h-2zM73 50h2v2h-2zM77 50h2v2h-2zM81 50h2v2h-2zM85 50h2v2h-2zM89 50h2v2h-2zM93 50h2v2h-2zM97 50h2v2h-2zM101 50h2v2h-2zM13 52h2v2h-2zM17 52h2v2h-2zM21 52h2v2h-2zM25 52h2v2h-2zM29 52h2v2h-2zM33 52h2v2h-2zM37 52h2v2h-2zM41 52h2v2h-2zM45 52h2v2h-2zM49 52h2v2h-2zM53 52h2v2h-2zM57 52h2v2h-2zM61 52h2v2h-2zM65 52h2v2h-2zM69 52h2v2h-2zM73 52h2v2h-2zM77 52h2v2h-2zM81 52h2v2h-2zM85 52h2v2h-2zM89 52h2v2h-2zM93 52h2v2h-2zM97 52h2v2h-2zM101 52h2v2h-2zM15 54h2v2h-2zM19 54h2v2h-2zM23 54h2v2h-2zM27 54h2v2h-2zM31 54h2v2h-2zM35 54h2v2h-2zM39 54h2v2h-2zM43 54h2v2h-2zM47 54h2v2h-2zM51 54h2v2h-2zM55 54h2v2h-2zM59 54h2v2h-2zM63 54h2v2h-2zM67 54h2v2h-2zM71 54h2v2h-2zM75 54h2v2h-2zM79 54h2v2h-2zM83 54h2v2h-2zM87 54h2v2h-2zM91 54h2v2h-2zM95 54h2v2h-2zM99 54h2v2h-2zM17 56h2v2h-2zM21 56h2v2h-2zM25 56h2v2h-2zM29 56h2v2h-2zM33 56h2v2h-2zM37 56h2v2h-2zM41 56h2v2h-2zM45 56h2v2h-2zM49 56h2v2h-2zM53 56h2v2h-2zM57 56h2v2h-2zM61 56h2v2h-2zM65 56h2v2h-2zM69 56h2v2h-2zM73 56h2v2h-2zM77 56h2v2h-2zM81 56h2v2h-2zM85 56h2v2h-2zM89 56h2v2h-2zM93 56h2v2h-2zM97 56h2v2h-2zM19 58h2v2h-2zM23 58h2v2h-2zM27 58h2v2h-2zM31 58h2v2h-2zM35 58h2v2h-2zM39 58h2v2h-2zM43 58h2v2h-2zM47 58h2v2h-2zM51 58h2v2h-2zM55 58h2v2h-2zM59 58h2v2h-2zM63 58h2v2h-2zM67 58h2v2h-2zM71 58h2v2h-2zM75 58h2v2h-2zM79 58h2v2h-2zM83 58h2v2h-2zM87 58h2v2h-2zM91 58h2v2h-2zM95 58h2v2h-2zM21 60h2v2h-2zM25 60h2v2h-2zM29 60h2v2h-2zM33 60h2v2h-2zM37 60h2v2h-2zM41 60h2v2h-2zM45 60h2v2h-2zM49 60h2v2h-2zM53 60h2v2h-2zM57 60h2v2h-2zM61 60h2v2h-2zM65 60h2v2h-2zM69 60h2v2h-2zM73 60h2v2h-2zM77 60h2v2h-2zM81 60h2v2h-2zM85 60h2v2h-2zM89 60h2v2h-2zM93 60h2v2h-2zM23 62h2v2h-2zM27 62h2v2h-2zM31 62h2v2h-2zM35 62h2v2h-2zM39 62h2v2h-2zM43 62h2v2h-2zM47 62h2v2h-2zM51 62h2v2h-2zM55 62h2v2h-2zM59 62h2v2h-2zM63 62h2v2h-2zM67 62h2v2h-2zM71 62h2v2h-2zM75 62h2v2h-2zM79 62h2v2h-2zM83 62h2v2h-2zM87 62h2v2h-2zM91 62h2v2h-2zM25 64h2v2h-2zM29 64h2v2h-2zM33 64h2v2h-2zM37 64h2v2h-2zM41 64h2v2h-2zM45 64h2v2h-2zM49 64h2v2h-2zM53 64h2v2h-2zM57 64h2v2h-2zM61 64h2v2h-2zM65 64h2v2h-2zM69 64h2v2h-2zM73 64h2v2h-2zM77 64h2v2h-2zM81 64h2v2h-2zM85 64h2v2h-2zM89 64h2v2h-2zM27 66h2v2h-2zM31 66h2v2h-2zM35 66h2v2h-2zM39 66h2v2h-2zM43 66h2v2h-2zM47 66h2v2h-2zM51 66h2v2h-2zM55 66h2v2h-2zM59 66h2v2h-2zM63 66h2v2h-2zM67 66h2v2h-2zM71 66h2v2h-2zM75 66h2v2h-2zM79 66h2v2h-2zM83 66h2v2h-2zM87 66h2v2h-2zM29 68h2v2h-2zM33 68h2v2h-2zM37 68h2v2h-2zM41 68h2v2h-2zM45 68h2v2h-2zM49 68h2v2h-2zM53 68h2v2h-2zM57 68h2v2h-2zM61 68h2v2h-2zM65 68h2v2h-2zM69 68h2v2h-2zM73 68h2v2h-2zM77 68h2v2h-2zM81 68h2v2h-2zM85 68h2v2h-2zM31 70h2v2h-2zM35 70h2v2h-2zM39 70h2v2h-2zM43 70h2v2h-2zM47 70h2v2h-2zM51 70h2v2h-2zM55 70h2v2h-2zM59 70h2v2h-2zM63 70h2v2h-2zM67 70h2v2h-2zM71 70h2v2h-2zM75 70h2v2h-2zM79 70h2v2h-2zM83 70h2v2h-2zM33 72h2v2h-2zM37 72h2v2h-2zM41 72h2v2h-2zM45 72h2v2h-2zM49 72h2v2h-2zM53 72h2v2h-2zM57 72h2v2h-2zM61 72h2v2h-2zM65 72h2v2h-2zM69 72h2v2h-2zM73 72h2v2h-2zM77 72h2v2h-2zM81 72h2v2h-2zM35 74h2v2h-2zM39 74h2v2h-2zM43 74h2v2h-2zM47 74h2v2h-2zM51 74h2v2h-2zM55 74h2v2h-2zM59 74h2v2h-2zM63 74h2v2h-2zM67 74h2v2h-2zM71 74h2v2h-2zM75 74h2v2h-2zM79 74h2v2h-2zM37 76h2v2h-2zM41 76h2v2h-2zM45 76h2v2h-2zM49 76h2v2h-2zM53 76h2v2h-2zM57 76h2v2h-2zM61 76h2v2h-2zM65 76h2v2h-2zM69 76h2v2h-2zM73 76h2v2h-2zM77 76h2v2h-2zM39 78h2v2h-2zM43 78h2v2h-2zM47 78h2v2h-2zM51 78h2v2h-2zM55 78h2v2h-2zM59 78h2v2h-2zM63 78h2v2h-2zM67 78h2v2h-2zM71 78h2v2h-2zM75 78h2v2h-2zM41 80h2v2h-2zM45 80h2v2h-2zM49 80h2v2h-2zM53 80h2v2h-2zM57 80h2v2h-2zM61 80h2v2h-2zM65 80h2v2h-2zM69 80h2v2h-2zM73 80h2v2h-2zM43 82h2v2h-2zM47 82h2v2h-2zM51 82h2v2h-2zM55 82h2v2h-2zM59 82h2v2h-2zM63 82h2v2h-2zM67 82h2v2h-2zM71 82h2v2h-2zM45 84h2v2h-2zM49 84h2v2h-2zM53 84h2v2h-2zM57 84h2v2h-2zM61 84h2v2h-2zM65 84h2v2h-2zM69 84h2v2h-2zM47 86h2v2h-2zM51 86h2v2h-2zM55 86h2v2h-2zM59 86h2v2h-2zM63 86h2v2h-2zM65 86h2v2h-2zM69 86h2v2h-2zM49 88h2v2h-2zM53 88h2v2h-2zM57 88h2v2h-2zM61 88h2v2h-2zM63 88h2v2h-2zM67 88h2v2h-2zM51 90h2v2h-2zM55 90h2v2h-2zM59 90h2v2h-2zM61 90h2v2h-2zM65 90h2v2h-2zM53 92h2v2h-2zM57 92h2v2h-2zM59 92h2v2h-2zM63 92h2v2h-2zM55 94h2v2h-2zM57 94h2v2h-2zM61 94h2v2h-2zM57 96h2v2h-2zM59 96h2v2h-2zM43 96h2v2h-2zM45 96h2v2h-2zM61 98h2v2h-2zM51 98h2v2h-2zM53 98h2v2h-2z"/></svg>